<svg width="120" height="120" viewBox="0 0 120 120" fill="none" xmlns="http://www.w3.org/2000/svg">
<g id="ico/lowrisk">
<g id="ico/lowrisk_2">
<rect id="Mask" width="120" height="120" rx="5" fill="white"/>
<g id="ico/low">
<path id="Fill 1" fill-rule="evenodd" clip-rule="evenodd" d="M55.0174 104.695H43.6661C40.6634 104.695 38.9891 103.151 37.6437 101.91C36.6143 100.96 35.9907 100.424 35.1237 100.424H25.1191V97.5762H35.1237C37.1454 97.5762 38.4353 98.7664 39.5743 99.8171C40.756 100.906 41.7753 101.847 43.6661 101.847H55.0174V104.695Z" fill="#2A5082"/>
<path id="Fill 3" fill-rule="evenodd" clip-rule="evenodd" d="M64.9934 81.9153C64.2089 81.9153 63.5696 82.5546 63.5696 83.3391V86.1879C63.5696 86.9724 64.2089 87.6117 64.9934 87.6117H72.102C72.8865 87.6117 73.5258 86.9724 73.5258 86.1879V83.3391C73.5258 82.5546 72.8865 81.9153 72.102 81.9153H64.9934ZM72.102 90.4591H64.9934C62.6385 90.4591 60.7222 88.5428 60.7222 86.1879V83.3391C60.7222 80.9842 62.6385 79.0679 64.9934 79.0679H72.102C74.4569 79.0679 76.3732 80.9842 76.3732 83.3391V86.1879C76.3732 88.5428 74.4569 90.4591 72.102 90.4591Z" fill="#2A5082"/>
<path id="Fill 5" fill-rule="evenodd" clip-rule="evenodd" d="M63.5695 73.3724C62.7851 73.3724 62.1458 74.0116 62.1458 74.7961V77.6435C62.1458 78.4294 62.7851 79.0673 63.5695 79.0673H70.6782C71.4627 79.0673 72.1019 78.4294 72.1019 77.6435V74.7961C72.1019 74.0116 71.4627 73.3724 70.6782 73.3724H63.5695ZM70.6782 81.9147H63.5695C61.2147 81.9147 59.2983 79.9998 59.2983 77.6435V74.7961C59.2983 72.4412 61.2147 70.5249 63.5695 70.5249H70.6782C73.0331 70.5249 74.9494 72.4412 74.9494 74.7961V77.6435C74.9494 79.9998 73.0331 81.9147 70.6782 81.9147Z" fill="#2A5082"/>
<path id="Fill 7" fill-rule="evenodd" clip-rule="evenodd" d="M63.5593 90.4583C62.7748 90.4583 62.1355 91.0976 62.1355 91.882V94.7309C62.1355 95.5154 62.7748 96.1546 63.5593 96.1546H70.6679C71.4524 96.1546 72.0917 95.5154 72.0917 94.7309V91.882C72.0917 91.0976 71.4524 90.4583 70.6679 90.4583H63.5593ZM70.668 99.0021H63.5593C61.2044 99.0021 59.2881 97.0858 59.2881 94.7309V91.882C59.2881 89.5272 61.2044 87.6108 63.5593 87.6108H70.668C73.0228 87.6108 74.9391 89.5272 74.9391 91.882V94.7309C74.9391 97.0858 73.0228 99.0021 70.668 99.0021Z" fill="#2A5082"/>
<path id="Fill 9" fill-rule="evenodd" clip-rule="evenodd" d="M60.7102 99.0013C59.9257 99.0013 59.2864 99.6405 59.2864 100.425V101.849C59.2864 102.635 59.9257 103.272 60.7102 103.272H67.8188C68.6033 103.272 69.2426 102.635 69.2426 101.849V100.425C69.2426 99.6405 68.6033 99.0013 67.8188 99.0013H60.7102ZM67.8188 106.12H60.7102C58.3553 106.12 56.439 104.205 56.439 101.849V100.425C56.439 98.0701 58.3553 96.1538 60.7102 96.1538H67.8188C70.1737 96.1538 72.09 98.0701 72.09 100.425V101.849C72.09 104.205 70.1737 106.12 67.8188 106.12Z" fill="#2A5082"/>
<mask id="mask0" mask-type="alpha" maskUnits="userSpaceOnUse" x="18" y="15" width="84" height="92">
<path id="Clip 12" fill-rule="evenodd" clip-rule="evenodd" d="M18 106.12H102V15H18V106.12Z" fill="white"/>
</mask>
<g mask="url(#mask0)">
<path id="Fill 11" fill-rule="evenodd" clip-rule="evenodd" d="M19.4238 103.271H33.6611V71.9487H19.4238V103.271Z" fill="#A3D4FF"/>
<path id="Fill 13" fill-rule="evenodd" clip-rule="evenodd" d="M20.8475 101.847H32.2373V73.3724H20.8475V101.847ZM18 104.694H35.0847V70.5249H18V104.694Z" fill="#2A5082"/>
<path id="Fill 14" fill-rule="evenodd" clip-rule="evenodd" d="M45.8393 93.2145L44.8413 90.5479C50.8921 88.2827 54.8871 82.6476 55.0167 76.191V69.1008C55.0167 68.5484 55.1904 68.0046 55.4296 67.2514C55.8325 65.9871 56.4404 64.0779 56.4404 61.1564C56.4404 56.7642 55.7029 55.3718 53.8905 53.0255C53.1089 52.0161 52.0283 51.8011 51.352 52.0332C50.7455 52.241 50.7455 52.6696 50.7455 52.812V54.8636C50.7455 61.5964 47.7827 65.8576 44.5807 69.461L38.5726 76.2195H35.0845V73.372H37.2927L42.4523 67.5689C45.8137 63.7861 47.898 60.3406 47.898 54.8636V52.812C47.898 51.2031 48.869 49.872 50.4323 49.3395C52.0895 48.7714 54.497 49.1544 56.1443 51.2857C58.361 54.156 59.2879 56.162 59.2879 61.1564C59.2879 64.5207 58.5717 66.7716 58.1432 68.1156C58.0236 68.4929 57.8741 68.9627 57.8641 69.1108V76.2195C57.7104 83.8777 52.9907 90.5379 45.8393 93.2145Z" fill="#2A5082"/>
<path id="Fill 15" fill-rule="evenodd" clip-rule="evenodd" d="M74.9265 69.1072C74.0538 69.1072 73.2251 68.7015 72.6713 67.9625L67.1188 60.5591H59.2883V57.7117H68.5425L74.9493 66.2541V57.7117H79.2205V36.3558H43.6272V40.6269H40.7798V33.5083H82.0679V60.5591H77.7967V66.2541C77.7967 67.5013 77.0322 68.5619 75.8491 68.9563C75.543 69.0574 75.2312 69.1072 74.9265 69.1072Z" fill="#BCC0C4"/>
<path id="Fill 16" fill-rule="evenodd" clip-rule="evenodd" d="M67.8311 34.9317H70.6785V29.2368H67.8311V34.9317Z" fill="#BCC0C4"/>
<path id="Fill 17" fill-rule="evenodd" clip-rule="evenodd" d="M32.2591 54.8701C31.9544 54.8701 31.6426 54.8203 31.3365 54.7192C30.1534 54.3248 29.3889 53.2641 29.3889 52.0169V46.322H25.1177V15H70.677V24.9633H67.8295V17.8475H27.9651V43.4746H32.2363V52.0169L38.6431 43.4746H67.8295V39.2034H70.677V46.322H40.0668L34.5143 53.7254C33.9605 54.4643 33.1318 54.8701 32.2591 54.8701Z" fill="#BCC0C4"/>
<path id="Fill 18" fill-rule="evenodd" clip-rule="evenodd" d="M94.8596 60.5627C93.9868 60.5627 93.1582 60.157 92.6044 59.418L87.0519 52.0147H80.6451V49.1672H88.4756L94.8824 57.7096V49.1672H99.1536V26.389H56.4417V30.6616H53.5942V23.5415H102.001V52.0147H97.7298V57.7096C97.7298 58.9568 96.9653 60.0174 95.7822 60.4118C95.4761 60.5129 95.1643 60.5627 94.8596 60.5627Z" fill="#BCC0C4"/>
<path id="Fill 19" fill-rule="evenodd" clip-rule="evenodd" d="M45.8222 60.5588H40.7798V49.1689H43.6272V57.7113H45.8222V60.5588Z" fill="#BCC0C4"/>
<path id="Fill 20" fill-rule="evenodd" clip-rule="evenodd" d="M25.1191 81.9151H27.9666V76.2202H25.1191V81.9151Z" fill="#2A5082"/>
</g>
</g>
</g>
</g>
</svg>
