<svg width="40" height="40" viewBox="0 0 40 40" fill="none" xmlns="http://www.w3.org/2000/svg">
<rect width="40" height="40" rx="5" fill="white"/>
<path fill-rule="evenodd" clip-rule="evenodd" d="M19.8974 10.0399C14.6845 10.0399 10.4437 14.2807 10.4437 19.4941C10.4437 22.0194 11.4273 24.3937 13.213 26.1794C14.9982 27.9646 17.3725 28.9477 19.8974 28.9477C25.1102 28.9477 29.351 24.7069 29.351 19.4935C29.351 16.9687 28.3674 14.5944 26.5822 12.8087C24.7965 11.0235 22.4222 10.0399 19.8974 10.0399ZM19.8974 29.9969C17.0918 29.9974 14.4547 28.9047 12.4713 26.9212C10.4873 24.9372 9.39453 22.2996 9.39453 19.4941C9.39453 13.7026 14.1064 8.99072 19.8974 8.99072C22.7029 8.99072 25.3405 10.0834 27.324 12.0669C29.3074 14.0509 30.4002 16.6886 30.4002 19.4935C30.4002 25.2855 25.6883 29.9969 19.8974 29.9969Z" fill="#BCC0C4"/>
<path fill-rule="evenodd" clip-rule="evenodd" d="M19.9381 26.8506C23.9879 26.8506 27.2624 23.5672 27.2514 19.5174C27.2414 15.467 23.9496 12.1841 19.9003 12.1836C15.8504 12.1836 12.5765 15.467 12.5864 19.5174C12.5975 23.5672 15.8882 26.8506 19.9381 26.8506Z" fill="#A3D4FF"/>
<path fill-rule="evenodd" clip-rule="evenodd" d="M19.8999 12.7084C18.0817 12.7084 16.3747 13.4166 15.0926 14.7018C13.8105 15.987 13.1065 17.6972 13.1112 19.516C13.1207 23.271 16.1832 26.3262 19.9377 26.3262C21.7559 26.3262 23.4635 25.618 24.7456 24.3328C26.0282 23.047 26.7312 21.3373 26.727 19.5186C26.717 15.7636 23.6544 12.7084 19.8999 12.7084ZM19.9377 27.3754C15.6062 27.3754 12.0731 23.8507 12.062 19.5186C12.0568 17.4187 12.8694 15.4451 14.3498 13.9606C15.8302 12.4765 17.8011 11.6592 19.8999 11.6592C24.232 11.6592 27.7651 15.1839 27.7761 19.516C27.7814 21.6154 26.9693 23.5889 25.4884 25.0735C24.008 26.5575 22.0366 27.3754 19.9377 27.3754Z" fill="#2A5082"/>
<mask id="mask0" mask-type="alpha" maskUnits="userSpaceOnUse" x="5" y="13" width="31" height="22">
<path fill-rule="evenodd" clip-rule="evenodd" d="M5.20801 13.4067H35.7928V34.8992H5.20801V13.4067Z" fill="white"/>
</mask>
<g mask="url(#mask0)">
<path fill-rule="evenodd" clip-rule="evenodd" d="M28.8146 34.8992V32.6319H19.3719C17.7326 32.6319 16.2627 32.0696 15.2098 31.6252L14.8453 32.2972L13.6964 32.6214L11.6489 31.4406L11.3452 30.3038L11.7544 29.5951C11.0425 29.0196 10.3952 28.3728 9.82283 27.6661L9.11253 28.079L7.97417 27.7774L6.79227 25.7383L7.10598 24.5936L7.80053 24.2049C7.49942 23.4075 7.25548 22.5016 7.10388 21.6155H6.25719C5.85273 21.6155 5.62873 21.2981 5.49443 21.1088C5.45404 21.0511 5.41312 20.9881 5.36171 20.9372L5.20801 20.7835V18.2508L6.04001 17.4188H7.10178C7.25548 16.452 7.46899 15.5938 7.73758 14.8572L6.73142 14.3405L7.21089 13.4067L9.07476 14.3646L8.88276 14.8137C8.51922 15.663 8.24748 16.7395 8.07489 18.0137L8.01299 18.468H6.47437L6.25719 18.6852V20.3743C6.28971 20.4174 6.32119 20.4609 6.35161 20.5034C6.36683 20.5249 6.38047 20.5464 6.39516 20.5663H8.01247L8.07437 21.0206C8.22335 22.1212 8.53968 23.2916 8.94152 24.2311L9.1267 24.6644L8.00145 25.2945L7.92014 25.5919L8.66401 26.8745L8.96093 26.9532L10.0935 26.2949L10.3742 26.6673C11.0477 27.5633 11.8477 28.3628 12.7521 29.0427L13.1235 29.3223L12.4715 30.4522L12.5507 30.7492L13.837 31.4915L14.1344 31.4075L14.744 30.2854L15.3016 30.5236C16.3451 30.9705 17.7735 31.5827 19.3719 31.5827H29.8637V32.9876L33.8391 30.458L29.8637 27.9284V29.4844H27.2408V28.4352H28.8146V26.0168L35.7932 30.458L28.8146 34.8992Z" fill="#2A5082"/>
</g>
<path fill-rule="evenodd" clip-rule="evenodd" d="M32.6988 25.5607L30.8921 24.6374L31.0841 24.1873C31.4964 23.222 31.8038 22.0973 31.9496 21.0209L32.0115 20.5666H33.3188L33.536 20.3494V18.6854L33.3188 18.4682H32.0115L31.9496 18.0139C31.7944 16.8682 31.4702 15.6428 31.083 14.7357L30.9015 14.3108L32.0336 13.6483L32.1128 13.3513L31.3563 12.0404L31.0599 11.9601L29.9294 12.6111L29.6498 12.2403C28.9721 11.3374 28.1715 10.5369 27.2719 9.8602L26.9005 9.58111L27.5536 8.44905L27.4744 8.15213L26.1991 7.41613L25.9016 7.50321L25.2894 8.68616L24.8414 8.49416C23.9885 8.1301 22.401 7.4518 20.6521 7.4518H9.92944V5.91108L5.9541 8.44118L9.92944 10.9708V9.55016H12.5524V10.5993H10.9786V12.8824L4 8.44118L10.9786 4V6.40262H20.6521C22.3313 6.40262 23.8295 6.93875 24.8047 7.34007L25.1761 6.6219L26.3355 6.28302L28.3756 7.46125L28.6799 8.59698L28.2696 9.30833C28.9794 9.88275 29.6273 10.5311 30.2028 11.243L30.9136 10.8344L32.0493 11.1402L33.2375 13.2024L32.9364 14.3355L32.2203 14.7546C32.5188 15.5531 32.7649 16.4863 32.9207 17.419H33.7532L34.5852 18.251V20.7837L33.7532 21.6157H32.9196C32.7717 22.475 32.5351 23.3469 32.2319 24.1443L33.1761 24.6264L32.6988 25.5607Z" fill="#2A5082"/>
<path fill-rule="evenodd" clip-rule="evenodd" d="M19.3721 22.6649C18.5044 22.6649 17.7983 21.9588 17.7983 21.0911H18.8475C18.8475 21.3802 19.0825 21.6157 19.3721 21.6157H20.4213C20.7109 21.6157 20.9459 21.3802 20.9459 21.0911V20.2733C20.9459 20.0472 20.8021 19.8473 20.5871 19.776L18.8743 19.2047C18.2306 18.9907 17.7983 18.3905 17.7983 17.7122V17.419C17.7983 16.5513 18.5044 15.8452 19.3721 15.8452H20.4213C21.289 15.8452 21.9951 16.5513 21.9951 17.419H20.9459C20.9459 17.1299 20.7109 16.8944 20.4213 16.8944H19.3721C19.0825 16.8944 18.8475 17.1299 18.8475 17.419V17.7122C18.8475 17.9383 18.9913 18.1382 19.2063 18.2095L20.9191 18.7808C21.5628 18.9949 21.9951 19.595 21.9951 20.2733V21.0911C21.9951 21.9588 21.289 22.6649 20.4213 22.6649H19.3721Z" fill="#2A5082"/>
<mask id="mask1" mask-type="alpha" maskUnits="userSpaceOnUse" x="4" y="4" width="32" height="31">
<path fill-rule="evenodd" clip-rule="evenodd" d="M4 34.8994H35.7928V4H4V34.8994Z" fill="white"/>
</mask>
<g mask="url(#mask1)">
<path fill-rule="evenodd" clip-rule="evenodd" d="M19.3721 16.3698H20.4213V14.2715H19.3721V16.3698Z" fill="#2A5082"/>
<path fill-rule="evenodd" clip-rule="evenodd" d="M19.3721 24.2385H20.4213V22.1401H19.3721V24.2385Z" fill="#2A5082"/>
</g>
</svg>
