<svg width="80" height="80" viewBox="0 0 80 80" fill="none" xmlns="http://www.w3.org/2000/svg">
<rect width="80" height="80" rx="5" fill="white"/>
<path fill-rule="evenodd" clip-rule="evenodd" d="M64 37C64 51.9116 51.9126 64 37 64C22.0884 64 10 51.9116 10 37C10 22.0884 22.0884 10 37 10C51.9126 10 64 22.0884 64 37" fill="#E9EAEB"/>
<mask id="mask0" mask-type="alpha" maskUnits="userSpaceOnUse" x="6" y="10" width="66" height="56">
<path fill-rule="evenodd" clip-rule="evenodd" d="M6 66H72V10H6V66Z" fill="white"/>
</mask>
<g mask="url(#mask0)">
<path fill-rule="evenodd" clip-rule="evenodd" d="M22 66H54V34H22V66Z" fill="white"/>
<path fill-rule="evenodd" clip-rule="evenodd" d="M34.4211 40C34.4211 42.3253 32.4415 44.2105 30 44.2105V55.7895C32.4415 55.7895 34.4211 57.6747 34.4211 60H63.1712C68.7649 60 72 54.3495 72 47.7116V40H34.4211Z" fill="#A3D4FF"/>
<path fill-rule="evenodd" clip-rule="evenodd" d="M36.194 57.9048H62.5616C67.6037 57.9048 69.9 52.1083 69.9 46.7225V40.0952H36.194C35.7761 42.1444 34.1538 43.7629 32.1 44.1799V53.8201C34.1538 54.237 35.7761 55.8556 36.194 57.9048M62.5616 60H34.2V58.9524C34.2 57.2196 32.7867 55.8095 31.05 55.8095H30V42.1905H31.05C32.7867 42.1905 34.2 40.7804 34.2 39.0476V38H72V46.7225C72 54.5398 68.1182 60 62.5616 60" fill="#2A5082"/>
<path fill-rule="evenodd" clip-rule="evenodd" d="M38 50H42V48H38V50Z" fill="#2A5082"/>
<path fill-rule="evenodd" clip-rule="evenodd" d="M58 50.0005C58 53.3141 55.3135 56 51.9995 56C48.6865 56 46 53.3141 46 50.0005C46 46.687 48.6865 44 51.9995 44C55.3135 44 58 46.687 58 50.0005" fill="white"/>
<path fill-rule="evenodd" clip-rule="evenodd" d="M53 44.1517C50.3254 44.1517 48.1482 46.326 48.1482 49.0006C48.1482 51.673 50.3254 53.8483 53 53.8483C55.6745 53.8483 57.8518 51.673 57.8518 49.0006C57.8518 46.326 55.6745 44.1517 53 44.1517M53 56C49.1396 56 46 52.8596 46 49.0005C46 45.1404 49.1396 42 53 42C56.8604 42 60 45.1404 60 49.0005C60 52.8596 56.8604 56 53 56" fill="#2A5082"/>
<path fill-rule="evenodd" clip-rule="evenodd" d="M61.3617 66H22V42.6684H24.1277V63.8789H61.3617C66.4521 63.8789 69.8723 60.7515 69.8723 56.0947V30.5095C67.8234 33.3549 64.5021 35.2448 60.8362 35.2448H53.9149V33.1237H60.8362C65.734 33.1237 69.8723 28.9463 69.8723 24H72V56.0947C72 61.9265 67.6255 66 61.3617 66" fill="#2A5082"/>
<path fill-rule="evenodd" clip-rule="evenodd" d="M24.2222 38H22V32H52V34H24.2222V38Z" fill="#2A5082"/>
<path fill-rule="evenodd" clip-rule="evenodd" d="M61.3193 14H54V20.354V23.531V45.77H61.3193C67.122 45.77 72 50.5377 72 56V23.9514C72 18.4891 67.122 14 61.3193 14" fill="white"/>
<path fill-rule="evenodd" clip-rule="evenodd" d="M54.2222 44.4643H60.34C64.1689 44.4643 67.6377 46.4035 69.7777 49.3221V23.2511C69.7777 18.3262 65.4555 14.1643 60.34 14.1643H54.2222V44.4643ZM72 56H69.7778C69.7778 51.0081 65.3678 46.6286 60.34 46.6286H52V12H60.34C66.66 12 72 17.1532 72 23.2511V56Z" fill="#2A5082"/>
<path fill-rule="evenodd" clip-rule="evenodd" d="M72 27.9315C72 22.2633 68.2968 20 64.1028 20C64.1028 21.766 62.4 23.6146 60 23.8766V37.0014C62.4 37.2634 64.1028 38.8142 64.1028 40.8779C66.012 40.8779 72 43.8258 72 48V27.9315Z" fill="#A3D4FF"/>
<path fill-rule="evenodd" clip-rule="evenodd" d="M65.336 40.2307C66.662 40.6081 68.566 41.6674 70 43.25V28.7C70 23.6413 67.148 22.4404 65.271 22.1991C64.852 23.7839 63.585 25.1359 62 25.6645V36.5444C63.757 37.073 65.013 38.4615 65.336 40.2307V40.2307ZM72 48H70C70 44.6804 65.586 42.2229 64.419 42.2229H63.419V41.1506C63.419 39.7493 62.399 38.6792 60.883 38.4872L60 38.3768V23.8471L60.883 23.7356C62.4 23.5437 63.419 22.2045 63.419 21.0722V20H64.419C68.084 20 72 22.286 72 28.7V48Z" fill="#2A5082"/>
<path fill-rule="evenodd" clip-rule="evenodd" d="M40 20H56V18H40V20Z" fill="#2A5082"/>
<path fill-rule="evenodd" clip-rule="evenodd" d="M36 20H38V18H36V20Z" fill="#2A5082"/>
<path fill-rule="evenodd" clip-rule="evenodd" d="M32 20H34V18H32V20Z" fill="#2A5082"/>
<path fill-rule="evenodd" clip-rule="evenodd" d="M16 40H22V38H16V40Z" fill="#2A5082"/>
<path fill-rule="evenodd" clip-rule="evenodd" d="M6 50H26V48H6V50Z" fill="#2A5082"/>
<path fill-rule="evenodd" clip-rule="evenodd" d="M12 40H14V38H12V40Z" fill="#2A5082"/>
</g>
</svg>
