<svg width="120" height="120" viewBox="0 0 120 120" fill="none" xmlns="http://www.w3.org/2000/svg">
<g id="ico/control">
<g id="ico/control_2">
<rect id="Mask" width="120" height="120" rx="5" fill="white"/>
<mask id="mask0" mask-type="alpha" maskUnits="userSpaceOnUse" x="0" y="0" width="120" height="120">
<rect id="Mask_2" width="120" height="120" rx="5" fill="white"/>
</mask>
<g mask="url(#mask0)">
<g id="ico/control_3">
<g id="Group 32">
<path id="Fill 1" fill-rule="evenodd" clip-rule="evenodd" d="M84.9806 59.0152C84.9806 74.8594 72.1363 87.7037 56.292 87.7037C40.4464 87.7037 27.6035 74.8594 27.6035 59.0152C27.6035 43.1709 40.4464 30.3267 56.292 30.3267C72.1363 30.3267 84.9806 43.1709 84.9806 59.0152Z" fill="#E9EAEB"/>
<path id="Fill 3" fill-rule="evenodd" clip-rule="evenodd" d="M56.2931 98.6325C37.7999 98.6325 21.5212 85.5369 17.5854 67.4946L20.2535 66.9126C23.9188 83.709 39.0745 95.9003 56.2931 95.9003C62.2548 95.9003 68.1756 94.4468 73.4174 91.6927L74.6879 94.1121C69.0568 97.0683 62.6961 98.6325 56.2931 98.6325Z" fill="#BCC0C4"/>
<path id="Fill 5" fill-rule="evenodd" clip-rule="evenodd" d="M92.0956 75.9962L89.6271 74.8227C91.9836 69.8678 93.1776 64.5481 93.1776 59.0153C93.1776 43.197 83.1202 29.156 68.1489 24.0782L69.026 21.4907C85.1066 26.9456 95.9099 42.0262 95.9099 59.0153C95.9099 64.9579 94.6271 70.671 92.0956 75.9962Z" fill="#BCC0C4"/>
<path id="Fill 7" fill-rule="evenodd" clip-rule="evenodd" d="M93.2345 100.565L59.4258 66.7564L61.3575 64.8247L93.2345 96.7018L96.1334 93.8043L64.255 61.9258L66.1867 59.9941L99.9968 93.8043L93.2345 100.565Z" fill="#2A5082"/>
<path id="Fill 9" fill-rule="evenodd" clip-rule="evenodd" d="M95.1656 88.9732L88.4047 95.7354L63.2886 70.6193L70.0509 63.8584L95.1656 88.9732Z" fill="#A3D4FF"/>
<path id="Fill 11" fill-rule="evenodd" clip-rule="evenodd" d="M65.2198 70.6204L88.4043 93.8048L93.2335 88.9742L70.0504 65.7911L65.2198 70.6204ZM88.4043 97.6682L61.3564 70.6204L70.0504 61.9277L97.0969 88.9742L88.4043 97.6682Z" fill="#2A5082"/>
<path id="Fill 13" fill-rule="evenodd" clip-rule="evenodd" d="M68.1177 75.4485L66.186 73.5168L72.9483 66.7559L74.88 68.6876L68.1177 75.4485Z" fill="#2A5082"/>
<path id="Fill 15" fill-rule="evenodd" clip-rule="evenodd" d="M84.5401 91.8708L82.6084 89.9392L89.3693 83.1782L91.301 85.1099L84.5401 91.8708Z" fill="#2A5082"/>
<path id="Fill 17" fill-rule="evenodd" clip-rule="evenodd" d="M69.9463 45.3566C69.9463 59.6913 58.3247 71.3129 43.99 71.3129C29.6553 71.3129 18.0337 59.6913 18.0337 45.3552C18.0337 31.0205 29.6553 19.3989 43.99 19.3989C58.326 19.3989 69.9463 31.0205 69.9463 45.3566Z" fill="#E9EAEB"/>
<g id="Group 21">
<mask id="mask1" mask-type="alpha" maskUnits="userSpaceOnUse" x="16" y="18" width="56" height="55">
<path id="Clip 20" fill-rule="evenodd" clip-rule="evenodd" d="M16.667 18.0322H71.3118V72.6783H16.667V18.0322Z" fill="white"/>
</mask>
<g mask="url(#mask1)">
<path id="Fill 19" fill-rule="evenodd" clip-rule="evenodd" d="M43.9894 20.7645C30.4307 20.7645 19.3992 31.7959 19.3992 45.3546C19.3992 58.9147 30.4307 69.9462 43.9894 69.9462C57.5481 69.9462 68.5796 58.9147 68.5796 45.356C68.5796 31.7959 57.5481 20.7645 43.9894 20.7645ZM43.9894 72.6784C28.9238 72.6784 16.667 60.4202 16.667 45.3546C16.667 30.2891 28.9238 18.0322 43.9894 18.0322C59.055 18.0322 71.3118 30.2904 71.3118 45.356C71.3118 60.4216 59.055 72.6784 43.9894 72.6784Z" fill="#2A5082"/>
</g>
</g>
<path id="Fill 22" fill-rule="evenodd" clip-rule="evenodd" d="M64.4771 45.3569C64.4771 56.6793 55.2996 65.8569 43.9785 65.8569C32.6561 65.8569 23.4785 56.678 23.4785 45.3569C23.4785 34.0345 32.6561 24.8569 43.9785 24.8569C55.2996 24.8569 64.4785 34.0359 64.4771 45.3569Z" fill="white"/>
<path id="Fill 24" fill-rule="evenodd" clip-rule="evenodd" d="M43.9794 26.2239C33.4289 26.2239 24.8455 34.8073 24.8455 45.3578C24.8455 55.9084 33.4289 64.4917 43.9794 64.4917C54.5299 64.4917 63.1119 55.9084 63.1119 45.3578C63.1119 40.2472 61.1228 35.4425 57.5081 31.8291C53.8947 28.2144 49.0901 26.2239 43.9794 26.2239ZM43.9794 67.2239C31.9234 67.2239 22.1133 57.4138 22.1133 45.3578C22.1133 33.3018 31.9234 23.4917 43.9794 23.4917C49.8196 23.4917 55.3114 25.7663 59.4398 29.8961C63.5709 34.0272 65.8455 39.5163 65.8442 45.3578C65.8442 57.4138 56.0354 67.2239 43.9794 67.2239Z" fill="#2A5082"/>
<path id="Fill 26" fill-rule="evenodd" clip-rule="evenodd" d="M30.5119 42.8693L27.8247 42.3761C29.255 34.5974 36.0406 28.9526 43.9586 28.9526H43.9613V31.6849H43.9586C37.3589 31.6849 31.7045 36.3884 30.5119 42.8693Z" fill="#2A5082"/>
<path id="Fill 28" fill-rule="evenodd" clip-rule="evenodd" d="M51.4241 60.0707L50.2178 57.6185C54.088 55.7155 56.8612 52.0571 57.6385 47.833L60.3257 48.3262C59.394 53.3972 56.0648 57.7866 51.4241 60.0707Z" fill="#2A5082"/>
<path id="Fill 30" fill-rule="evenodd" clip-rule="evenodd" d="M28.1698 49.8247C27.76 48.3807 27.5537 46.8794 27.5537 45.3589H30.286C30.286 46.6266 30.4581 47.878 30.7982 49.0802L28.1698 49.8247Z" fill="#2A5082"/>
</g>
</g>
</g>
</g>
</g>
</svg>
