<svg width="40" height="40" viewBox="0 0 40 40" fill="none" xmlns="http://www.w3.org/2000/svg">
<rect width="40" height="40" rx="5" fill="white"/>
<mask id="mask0" mask-type="alpha" maskUnits="userSpaceOnUse" x="0" y="0" width="40" height="40">
<rect width="40" height="40" rx="5" fill="white"/>
</mask>
<g mask="url(#mask0)">
<path fill-rule="evenodd" clip-rule="evenodd" d="M28.3269 19.6717C28.3269 24.9531 24.0454 29.2346 18.764 29.2346C13.4821 29.2346 9.20117 24.9531 9.20117 19.6717C9.20117 14.3903 13.4821 10.1089 18.764 10.1089C24.0454 10.1089 28.3269 14.3903 28.3269 19.6717Z" fill="#E9EAEB"/>
<path fill-rule="evenodd" clip-rule="evenodd" d="M18.7644 32.8775C12.6 32.8775 7.17375 28.5123 5.86182 22.4982L6.75116 22.3042C7.97293 27.903 13.0248 31.9668 18.7644 31.9668C20.7516 31.9668 22.7252 31.4823 24.4725 30.5642L24.896 31.3707C23.0189 32.3561 20.8987 32.8775 18.7644 32.8775Z" fill="#BCC0C4"/>
<path fill-rule="evenodd" clip-rule="evenodd" d="M30.6985 25.3321L29.8757 24.9409C30.6612 23.2893 31.0592 21.516 31.0592 19.6718C31.0592 14.399 27.7067 9.71867 22.7163 8.02605L23.0087 7.16357C28.3689 8.98188 31.97 14.0087 31.97 19.6718C31.97 21.6526 31.5424 23.557 30.6985 25.3321Z" fill="#BCC0C4"/>
<path fill-rule="evenodd" clip-rule="evenodd" d="M31.0782 33.5217L19.8086 22.2521L20.4525 21.6082L31.0782 32.2339L32.0445 31.2681L21.4183 20.6419L22.0622 19.998L33.3323 31.2681L31.0782 33.5217Z" fill="#2A5082"/>
<path fill-rule="evenodd" clip-rule="evenodd" d="M31.7219 29.6577L29.4682 31.9118L21.0962 23.5398L23.3503 21.2861L31.7219 29.6577Z" fill="#A3D4FF"/>
<path fill-rule="evenodd" clip-rule="evenodd" d="M21.7399 23.5401L29.4681 31.2683L31.0778 29.6581L23.3501 21.9304L21.7399 23.5401ZM29.4681 32.5561L20.4521 23.5401L23.3501 20.6426L32.3656 29.6581L29.4681 32.5561Z" fill="#2A5082"/>
<path fill-rule="evenodd" clip-rule="evenodd" d="M22.7059 25.1495L22.062 24.5056L24.3161 22.252L24.96 22.8959L22.7059 25.1495Z" fill="#2A5082"/>
<path fill-rule="evenodd" clip-rule="evenodd" d="M28.18 30.6236L27.5361 29.9797L29.7898 27.7261L30.4337 28.37L28.18 30.6236Z" fill="#2A5082"/>
<path fill-rule="evenodd" clip-rule="evenodd" d="M23.3154 15.1189C23.3154 19.8971 19.4416 23.771 14.6633 23.771C9.88509 23.771 6.01123 19.8971 6.01123 15.1184C6.01123 10.3402 9.88509 6.46631 14.6633 6.46631C19.442 6.46631 23.3154 10.3402 23.3154 15.1189Z" fill="#E9EAEB"/>
<mask id="mask1" mask-type="alpha" maskUnits="userSpaceOnUse" x="5" y="6" width="19" height="19">
<path fill-rule="evenodd" clip-rule="evenodd" d="M5.55566 6.01074H23.7706V24.2261H5.55566V6.01074Z" fill="white"/>
</mask>
<g mask="url(#mask1)">
<path fill-rule="evenodd" clip-rule="evenodd" d="M14.6631 6.92149C10.1436 6.92149 6.46641 10.5986 6.46641 15.1182C6.46641 19.6382 10.1436 23.3154 14.6631 23.3154C19.1827 23.3154 22.8599 19.6382 22.8599 15.1187C22.8599 10.5986 19.1827 6.92149 14.6631 6.92149ZM14.6631 24.2261C9.64127 24.2261 5.55566 20.1401 5.55566 15.1182C5.55566 10.0964 9.64127 6.01074 14.6631 6.01074C19.685 6.01074 23.7706 10.0968 23.7706 15.1187C23.7706 20.1405 19.685 24.2261 14.6631 24.2261Z" fill="#2A5082"/>
</g>
<path fill-rule="evenodd" clip-rule="evenodd" d="M21.4924 15.119C21.4924 18.8931 18.4332 21.9523 14.6595 21.9523C10.8854 21.9523 7.82617 18.8927 7.82617 15.119C7.82617 11.3448 10.8854 8.28564 14.6595 8.28564C18.4332 8.28564 21.4928 11.3453 21.4924 15.119Z" fill="white"/>
<path fill-rule="evenodd" clip-rule="evenodd" d="M14.6598 8.74131C11.143 8.74131 8.28184 11.6024 8.28184 15.1193C8.28184 18.6361 11.143 21.4972 14.6598 21.4972C18.1766 21.4972 21.0373 18.6361 21.0373 15.1193C21.0373 13.4157 20.3743 11.8142 19.1694 10.6097C17.9649 9.40479 16.3634 8.74131 14.6598 8.74131ZM14.6598 22.408C10.6411 22.408 7.37109 19.1379 7.37109 15.1193C7.37109 11.1006 10.6411 7.83057 14.6598 7.83057C16.6065 7.83057 18.4371 8.58876 19.8133 9.96536C21.1903 11.3424 21.9485 13.1721 21.9481 15.1193C21.9481 19.1379 18.6785 22.408 14.6598 22.408Z" fill="#2A5082"/>
<path fill-rule="evenodd" clip-rule="evenodd" d="M10.1706 14.2898L9.2749 14.1254C9.75168 11.5325 12.0135 9.65088 14.6529 9.65088H14.6538V10.5616H14.6529C12.453 10.5616 10.5682 12.1295 10.1706 14.2898Z" fill="#2A5082"/>
<path fill-rule="evenodd" clip-rule="evenodd" d="M17.1414 20.0236L16.7393 19.2062C18.0293 18.5718 18.9537 17.3524 19.2128 15.9443L20.1086 16.1087C19.798 17.7991 18.6883 19.2622 17.1414 20.0236Z" fill="#2A5082"/>
<path fill-rule="evenodd" clip-rule="evenodd" d="M9.38994 16.6082C9.25333 16.1269 9.18457 15.6265 9.18457 15.1196H10.0953C10.0953 15.5422 10.1527 15.9593 10.2661 16.3601L9.38994 16.6082Z" fill="#2A5082"/>
</g>
</svg>
