<svg width="40" height="40" viewBox="0 0 40 40" fill="none" xmlns="http://www.w3.org/2000/svg">
<rect width="40" height="40" rx="5" fill="white"/>
<path fill-rule="evenodd" clip-rule="evenodd" d="M18.3391 34.8983H14.5554C13.5545 34.8983 12.9964 34.3838 12.5479 33.97C12.2048 33.6535 11.9969 33.4745 11.7079 33.4745H8.37305V32.5254H11.7079C12.3818 32.5254 12.8118 32.9221 13.1914 33.2724C13.5853 33.6354 13.9251 33.9491 14.5554 33.9491H18.3391V34.8983Z" fill="#2A5082"/>
<path fill-rule="evenodd" clip-rule="evenodd" d="M21.6645 27.3051C21.403 27.3051 21.1899 27.5182 21.1899 27.7797V28.7293C21.1899 28.9908 21.403 29.2039 21.6645 29.2039H24.034C24.2955 29.2039 24.5086 28.9908 24.5086 28.7293V27.7797C24.5086 27.5182 24.2955 27.3051 24.034 27.3051H21.6645ZM24.034 30.153H21.6645C20.8795 30.153 20.2407 29.5143 20.2407 28.7293V27.7797C20.2407 26.9947 20.8795 26.356 21.6645 26.356H24.034C24.819 26.356 25.4577 26.9947 25.4577 27.7797V28.7293C25.4577 29.5143 24.819 30.153 24.034 30.153Z" fill="#2A5082"/>
<path fill-rule="evenodd" clip-rule="evenodd" d="M21.1898 24.4575C20.9284 24.4575 20.7153 24.6705 20.7153 24.932V25.8812C20.7153 26.1431 20.9284 26.3558 21.1898 26.3558H23.5594C23.8209 26.3558 24.034 26.1431 24.034 25.8812V24.932C24.034 24.6705 23.8209 24.4575 23.5594 24.4575H21.1898ZM23.5594 27.3049H21.1898C20.4049 27.3049 19.7661 26.6666 19.7661 25.8812V24.932C19.7661 24.1471 20.4049 23.5083 21.1898 23.5083H23.5594C24.3444 23.5083 24.9831 24.1471 24.9831 24.932V25.8812C24.9831 26.6666 24.3444 27.3049 23.5594 27.3049Z" fill="#2A5082"/>
<path fill-rule="evenodd" clip-rule="evenodd" d="M21.1864 30.1528C20.9249 30.1528 20.7118 30.3659 20.7118 30.6273V31.577C20.7118 31.8385 20.9249 32.0515 21.1864 32.0515H23.556C23.8175 32.0515 24.0306 31.8385 24.0306 31.577V30.6273C24.0306 30.3659 23.8175 30.1528 23.556 30.1528H21.1864ZM23.556 33.0007H21.1864C20.4015 33.0007 19.7627 32.3619 19.7627 31.577V30.6273C19.7627 29.8424 20.4015 29.2036 21.1864 29.2036H23.556C24.3409 29.2036 24.9797 29.8424 24.9797 30.6273V31.577C24.9797 32.3619 24.3409 33.0007 23.556 33.0007Z" fill="#2A5082"/>
<path fill-rule="evenodd" clip-rule="evenodd" d="M20.2367 33.0004C19.9752 33.0004 19.7621 33.2135 19.7621 33.475V33.9496C19.7621 34.2115 19.9752 34.4242 20.2367 34.4242H22.6063C22.8678 34.4242 23.0809 34.2115 23.0809 33.9496V33.475C23.0809 33.2135 22.8678 33.0004 22.6063 33.0004H20.2367ZM22.6063 35.3733H20.2367C19.4518 35.3733 18.813 34.735 18.813 33.9496V33.475C18.813 32.69 19.4518 32.0513 20.2367 32.0513H22.6063C23.3912 32.0513 24.03 32.69 24.03 33.475V33.9496C24.03 34.735 23.3912 35.3733 22.6063 35.3733Z" fill="#2A5082"/>
<mask id="mask0" mask-type="alpha" maskUnits="userSpaceOnUse" x="6" y="5" width="28" height="31">
<path fill-rule="evenodd" clip-rule="evenodd" d="M6 35.3734H34V5H6V35.3734Z" fill="white"/>
</mask>
<g mask="url(#mask0)">
<path fill-rule="evenodd" clip-rule="evenodd" d="M6.47461 34.4236H11.2204V23.9829H6.47461V34.4236Z" fill="#A3D4FF"/>
<path fill-rule="evenodd" clip-rule="evenodd" d="M6.94915 33.949H10.7458V24.4575H6.94915V33.949ZM6 34.8981H11.6949V23.5083H6V34.8981Z" fill="#2A5082"/>
<path fill-rule="evenodd" clip-rule="evenodd" d="M15.2798 31.0715L14.9471 30.1826C16.964 29.4276 18.2957 27.5492 18.3389 25.397V23.0336C18.3389 22.8495 18.3968 22.6682 18.4765 22.4171C18.6108 21.9957 18.8135 21.3593 18.8135 20.3855C18.8135 18.9214 18.5676 18.4573 17.9635 17.6752C17.703 17.3387 17.3428 17.267 17.1173 17.3444C16.9152 17.4137 16.9152 17.5565 16.9152 17.604V18.2879C16.9152 20.5321 15.9276 21.9525 14.8602 23.1537L12.8575 25.4065H11.6948V24.4573H12.4309L14.1508 22.523C15.2712 21.262 15.966 20.1135 15.966 18.2879V17.604C15.966 17.0677 16.2897 16.624 16.8108 16.4465C17.3632 16.2571 18.1657 16.3848 18.7148 17.0952C19.4537 18.052 19.7626 18.7207 19.7626 20.3855C19.7626 21.5069 19.5239 22.2572 19.3811 22.7052C19.3412 22.831 19.2914 22.9876 19.288 23.0369V25.4065C19.2368 27.9592 17.6636 30.1793 15.2798 31.0715Z" fill="#2A5082"/>
<path fill-rule="evenodd" clip-rule="evenodd" d="M24.9755 23.0357C24.6846 23.0357 24.4084 22.9005 24.2238 22.6542L22.3729 20.1864H19.7628V19.2372H22.8475L24.9831 22.0847V19.2372H26.4068V12.1186H14.5424V13.5423H13.5933V11.1694H27.356V20.1864H25.9322V22.0847C25.9322 22.5004 25.6774 22.854 25.283 22.9854C25.181 23.0191 25.0771 23.0357 24.9755 23.0357Z" fill="#BCC0C4"/>
<path fill-rule="evenodd" clip-rule="evenodd" d="M22.6104 11.6439H23.5595V9.74561H22.6104V11.6439Z" fill="#BCC0C4"/>
<path fill-rule="evenodd" clip-rule="evenodd" d="M10.753 18.29C10.6515 18.29 10.5475 18.2734 10.4455 18.2397C10.0511 18.1083 9.79629 17.7547 9.79629 17.339V15.4407H8.37256V5H23.559V8.32108H22.6098V5.94915H9.32171V14.4915H10.7454V17.339L12.881 14.4915H22.6098V13.0678H23.559V15.4407H13.3556L11.5048 17.9085C11.3202 18.1548 11.0439 18.29 10.753 18.29Z" fill="#BCC0C4"/>
<path fill-rule="evenodd" clip-rule="evenodd" d="M31.6199 20.1876C31.3289 20.1876 31.0527 20.0523 30.8681 19.806L29.0173 17.3382H26.8817V16.3891H29.4919L31.6275 19.2365V16.3891H33.0512V8.79632H18.8139V10.2205H17.8647V7.84717H34.0003V17.3382H32.5766V19.2365C32.5766 19.6523 32.3218 20.0058 31.9274 20.1373C31.8254 20.171 31.7214 20.1876 31.6199 20.1876Z" fill="#BCC0C4"/>
<path fill-rule="evenodd" clip-rule="evenodd" d="M15.2741 20.1863H13.5933V16.3896H14.5424V19.2371H15.2741V20.1863Z" fill="#BCC0C4"/>
<path fill-rule="evenodd" clip-rule="evenodd" d="M8.37305 27.305H9.3222V25.4067H8.37305V27.305Z" fill="#2A5082"/>
</g>
</svg>
