<svg width="120" height="120" viewBox="0 0 120 120" fill="none" xmlns="http://www.w3.org/2000/svg">
<g id="ico/nezavis">
<g id="ico/nezavis_2">
<rect id="Mask" width="120" height="120" rx="5" fill="white"/>
<g id="ico/nezav">
<path id="Fill 1" fill-rule="evenodd" clip-rule="evenodd" d="M59.6921 30.1197C44.0535 30.1197 31.3311 42.8421 31.3311 58.4822C31.3311 66.0583 34.282 73.1812 39.6391 78.5383C44.9946 83.8939 52.1175 86.8431 59.6921 86.8431C75.3306 86.8431 88.053 74.1208 88.053 58.4806C88.053 50.9061 85.1022 43.7832 79.7466 38.4261C74.3895 33.0705 67.2666 30.1197 59.6921 30.1197ZM59.6921 89.9907C51.2755 89.9922 43.3642 86.7141 37.4138 80.7636C31.4618 74.8116 28.1836 66.8987 28.1836 58.4822C28.1836 41.1078 42.3192 26.9722 59.6921 26.9722C68.1086 26.9722 76.0215 30.2503 81.9719 36.2008C87.9223 42.1528 91.2005 50.0657 91.2005 58.4806C91.2005 75.8566 77.0649 89.9907 59.6921 89.9907Z" fill="#BCC0C4"/>
<path id="Fill 3" fill-rule="evenodd" clip-rule="evenodd" d="M59.8142 80.5518C71.9637 80.5518 81.7872 70.7016 81.7541 58.5521C81.7242 46.401 71.8488 36.5524 59.7009 36.5508C47.5513 36.5508 37.7294 46.401 37.7593 58.5521C37.7924 70.7016 47.6647 80.5518 59.8142 80.5518Z" fill="#A3D4FF"/>
<path id="Fill 5" fill-rule="evenodd" clip-rule="evenodd" d="M59.6998 38.1251C54.2451 38.1251 49.1241 40.2497 45.2778 44.1054C41.4315 47.9611 39.3195 53.0916 39.3337 58.5479C39.362 69.8129 48.5497 78.9786 59.8131 78.9786C65.2678 78.9786 70.3904 76.854 74.2367 72.9983C78.0846 69.1409 80.1935 64.012 80.1809 58.5558C80.151 47.2907 70.9633 38.1251 59.6998 38.1251ZM59.8131 82.1261C46.8185 82.1261 36.2192 71.552 36.1861 58.5558C36.1704 52.256 38.6081 46.3354 43.0493 41.8817C47.4905 37.4295 53.4032 34.9775 59.6998 34.9775C72.696 34.9775 83.2954 45.5517 83.3284 58.5479C83.3441 64.8461 80.9079 70.7667 76.4652 75.2204C72.024 79.6726 66.1098 82.1261 59.8131 82.1261Z" fill="#2A5082"/>
<g id="Group 9">
<mask id="mask0" mask-type="alpha" maskUnits="userSpaceOnUse" x="15" y="40" width="93" height="65">
<path id="Clip 8" fill-rule="evenodd" clip-rule="evenodd" d="M15.624 40.2202H107.378V104.698H15.624V40.2202Z" fill="white"/>
</mask>
<g mask="url(#mask0)">
<path id="Fill 7" fill-rule="evenodd" clip-rule="evenodd" d="M86.4437 104.698V97.8958H58.1158C53.1978 97.8958 48.7881 96.2087 45.6295 94.8757L44.5358 96.8917L41.0892 97.8643L34.9468 94.3217L34.0356 90.9114L35.2631 88.7852C33.1275 87.0588 31.1855 85.1183 29.4685 82.9984L27.3376 84.237L23.9225 83.3321L20.3768 77.2148L21.3179 73.7809L23.4016 72.6147C22.4983 70.2226 21.7664 67.5047 21.3116 64.8466H18.7716C17.5582 64.8466 16.8862 63.8944 16.4833 63.3263C16.3621 63.1532 16.2394 62.9643 16.0851 62.8117L15.624 62.3506V54.7524L18.12 52.2564H21.3053C21.7664 49.356 22.407 46.7813 23.2127 44.5717L20.1943 43.0215L21.6327 40.2202L27.2243 43.0939L26.6483 44.4411C25.5577 46.989 24.7424 50.2184 24.2247 54.0411L24.039 55.404H19.4231L18.7716 56.0555V61.123C18.8691 61.2521 18.9636 61.3827 19.0548 61.5102C19.1005 61.5747 19.1414 61.6392 19.1855 61.699H24.0374L24.2231 63.0619C24.6701 66.3637 25.619 69.8748 26.8245 72.6934L27.3801 73.9933L24.0044 75.8834L23.7604 76.7758L25.992 80.6236L26.8828 80.8597L30.2805 78.8846L31.1225 80.002C33.1432 82.69 35.5432 85.0884 38.2564 87.128L39.3706 87.9668L37.4144 91.3567L37.6521 92.2475L41.511 94.4744L42.4033 94.2226L44.232 90.8563L45.9049 91.5708C49.0352 92.9116 53.3205 94.7482 58.1158 94.7482H89.5912V98.9628L101.517 91.3741L89.5912 83.7853V88.4531H81.7224V85.3056H86.4437V78.0505L107.38 91.3741L86.4437 104.698Z" fill="#2A5082"/>
</g>
</g>
<path id="Fill 10" fill-rule="evenodd" clip-rule="evenodd" d="M98.0963 76.682L92.6762 73.9121L93.2522 72.5618C94.4892 69.6661 95.4114 66.2919 95.8489 63.0626L96.0346 61.6997H99.9565L100.608 61.0481V56.0561L99.9565 55.4046H96.0346L95.8489 54.0417C95.3831 50.6046 94.4105 46.9283 93.249 44.2072L92.7045 42.9325L96.1007 40.9448L96.3384 40.054L94.069 36.1212L93.1798 35.8804L89.7883 37.8334L88.9495 36.7208C86.9162 34.0123 84.5146 31.6108 81.8156 29.5806L80.7014 28.7433L82.6607 25.3471L82.4231 24.4564L78.5972 22.2484L77.7049 22.5096L75.8683 26.0585L74.5243 25.4825C71.9654 24.3903 67.2031 22.3554 61.9562 22.3554H29.7883V17.7332L17.8623 25.3235L29.7883 32.9123V28.6505H37.6572V31.798H32.9359V38.6471L12 25.3235L32.9359 12V19.2079H61.9562C66.9938 19.2079 71.4885 20.8163 74.4142 22.0202L75.5284 19.8657L79.0064 18.849L85.1268 22.3837L86.0396 25.791L84.8089 27.925C86.9382 29.6483 88.8818 31.5934 90.6083 33.729L92.7407 32.5031L96.1479 33.4206L99.7125 39.6071L98.8092 43.0064L96.661 44.2639C97.5565 46.6592 98.2946 49.4589 98.762 52.2571H101.26L103.756 54.753V62.3512L101.26 64.8472H98.7588C98.315 67.4251 97.6052 70.0407 96.6956 72.4328L99.5284 73.8791L98.0963 76.682Z" fill="#2A5082"/>
<path id="Fill 12" fill-rule="evenodd" clip-rule="evenodd" d="M58.1163 67.9947C55.5133 67.9947 53.395 65.8764 53.395 63.2733H56.5426C56.5426 64.1405 57.2476 64.8471 58.1163 64.8471H61.2639C62.1326 64.8471 62.8376 64.1405 62.8376 63.2733V60.8198C62.8376 60.1415 62.4064 59.5419 61.7612 59.3279L56.6228 57.6141C54.6918 56.972 53.395 55.1716 53.395 53.1367V52.257C53.395 49.6539 55.5133 47.5356 58.1163 47.5356H61.2639C63.8669 47.5356 65.9852 49.6539 65.9852 52.257H62.8376C62.8376 51.3898 62.1326 50.6832 61.2639 50.6832H58.1163C57.2476 50.6832 56.5426 51.3898 56.5426 52.257V53.1367C56.5426 53.815 56.9738 54.4146 57.619 54.6286L62.7574 56.3425C64.6884 56.9846 65.9852 58.785 65.9852 60.8198V63.2733C65.9852 65.8764 63.8669 67.9947 61.2639 67.9947H58.1163Z" fill="#2A5082"/>
<mask id="mask1" mask-type="alpha" maskUnits="userSpaceOnUse" x="12" y="12" width="96" height="93">
<path id="Clip 15" fill-rule="evenodd" clip-rule="evenodd" d="M12 104.698H107.378V12H12V104.698Z" fill="white"/>
</mask>
<g mask="url(#mask1)">
<path id="Fill 14" fill-rule="evenodd" clip-rule="evenodd" d="M58.1162 49.1095H61.2638V42.8145H58.1162V49.1095Z" fill="#2A5082"/>
<path id="Fill 16" fill-rule="evenodd" clip-rule="evenodd" d="M58.1162 72.7155H61.2638V66.4204H58.1162V72.7155Z" fill="#2A5082"/>
</g>
</g>
</g>
</g>
</svg>
