<svg width="40" height="40" viewBox="0 0 40 40" fill="none" xmlns="http://www.w3.org/2000/svg">
<rect width="40" height="40" rx="5" fill="white"/>
<mask id="mask0" mask-type="alpha" maskUnits="userSpaceOnUse" x="5" y="10" width="11" height="25">
<path fill-rule="evenodd" clip-rule="evenodd" d="M5 10.6548H15.9686V34.391H5V10.6548Z" fill="white"/>
</mask>
<g mask="url(#mask0)">
<path fill-rule="evenodd" clip-rule="evenodd" d="M15.4974 34.391C10.4414 31.8027 5 27.1558 5 23.0686V10.6548H6.03448V23.0686C6.03448 26.1488 10.2122 30.5231 15.9686 33.4703L15.4974 34.391Z" fill="#BCC0C4"/>
</g>
<mask id="mask1" mask-type="alpha" maskUnits="userSpaceOnUse" x="24" y="10" width="11" height="25">
<path fill-rule="evenodd" clip-rule="evenodd" d="M24.0312 10.6548H34.9998V34.391H24.0312V10.6548Z" fill="white"/>
</mask>
<g mask="url(#mask1)">
<path fill-rule="evenodd" clip-rule="evenodd" d="M24.5025 34.391L24.0312 33.4703C29.7876 30.5231 33.9654 26.1488 33.9654 23.0686V10.6548H34.9999V23.0686C34.9999 27.1558 29.5585 31.8027 24.5025 34.391Z" fill="#BCC0C4"/>
</g>
<path fill-rule="evenodd" clip-rule="evenodd" d="M19.9999 7.03418H26.8492C27.0887 7.03418 27.308 7.19297 27.3597 7.42677C27.7606 9.23297 29.1804 10.6528 30.9866 11.0537C31.2204 11.1054 31.3792 11.3247 31.3792 11.5642V21.5169C31.3792 27.0773 21.4223 31.8618 19.9999 31.8618C18.5775 31.8618 8.62061 27.0773 8.62061 21.5169V11.5642C8.62061 11.3247 8.7794 11.1054 9.01319 11.0537C10.8194 10.6528 12.2392 9.23297 12.6401 7.42677C12.6918 7.19297 12.9111 7.03418 13.1506 7.03418H19.9999Z" fill="white"/>
<mask id="mask2" mask-type="alpha" maskUnits="userSpaceOnUse" x="8" y="6" width="24" height="27">
<path fill-rule="evenodd" clip-rule="evenodd" d="M8.10352 6.51709H31.8966V32.3791H8.10352V6.51709Z" fill="white"/>
</mask>
<g mask="url(#mask2)">
<path fill-rule="evenodd" clip-rule="evenodd" d="M13.1508 7.55157C12.7018 9.53778 11.1242 11.1154 9.12558 11.5586L9.138 21.5171C9.138 26.69 18.8477 31.3447 20.0001 31.3447C21.1525 31.3447 30.8621 26.69 30.8621 21.5171V11.5643C28.8759 11.1154 27.2983 9.53778 26.8556 7.53916L13.1508 7.55157ZM20.0001 32.3792C18.2673 32.3792 8.10352 27.3236 8.10352 21.5171V11.5643C8.10352 11.0781 8.43921 10.6509 8.90162 10.5485C10.5092 10.1921 11.7785 8.92278 12.1354 7.31519C12.2373 6.85278 12.6645 6.51709 13.1508 6.51709H26.8494C27.3356 6.51709 27.7628 6.85278 27.8652 7.31519C28.2216 8.92278 29.4909 10.1921 31.0985 10.5485C31.5609 10.6509 31.8966 11.0781 31.8966 11.5643V21.5171C31.8966 27.3236 21.7333 32.3792 20.0001 32.3792Z" fill="#2A5082"/>
</g>
<path fill-rule="evenodd" clip-rule="evenodd" d="M20 18.931V11.1724H24.6552C24.8921 12.2068 25.9912 13.5217 27.2414 13.7586V18.931H20Z" fill="#A3D4FF"/>
<path fill-rule="evenodd" clip-rule="evenodd" d="M12.7588 18.9307V20.9996C12.7588 24.0384 18.9988 27.7238 20.0002 27.7238V18.9307H12.7588Z" fill="#A3D4FF"/>
<mask id="mask3" mask-type="alpha" maskUnits="userSpaceOnUse" x="5" y="6" width="30" height="29">
<path fill-rule="evenodd" clip-rule="evenodd" d="M5 34.3912H35V6.51709H5V34.3912Z" fill="white"/>
</mask>
<g mask="url(#mask3)">
<path fill-rule="evenodd" clip-rule="evenodd" d="M16.3794 9.62042H17.4139V8.58594H16.3794V9.62042Z" fill="#2A5082"/>
<path fill-rule="evenodd" clip-rule="evenodd" d="M10.1724 14.2757H11.2068V13.2412H10.1724V14.2757Z" fill="#2A5082"/>
<path fill-rule="evenodd" clip-rule="evenodd" d="M10.1724 19.4481H11.2068V18.4136H10.1724V19.4481Z" fill="#2A5082"/>
<path fill-rule="evenodd" clip-rule="evenodd" d="M12.2412 25.6551H13.2757V24.6206H12.2412V25.6551Z" fill="#2A5082"/>
<path fill-rule="evenodd" clip-rule="evenodd" d="M16.8965 29.2757H17.931V28.2412H16.8965V29.2757Z" fill="#2A5082"/>
<path fill-rule="evenodd" clip-rule="evenodd" d="M22.5864 9.62042H23.6209V8.58594H22.5864V9.62042Z" fill="#2A5082"/>
<path fill-rule="evenodd" clip-rule="evenodd" d="M28.793 14.2757H29.8275V13.2412H28.793V14.2757Z" fill="#2A5082"/>
<path fill-rule="evenodd" clip-rule="evenodd" d="M28.793 19.4481H29.8275V18.4136H28.793V19.4481Z" fill="#2A5082"/>
<path fill-rule="evenodd" clip-rule="evenodd" d="M26.7241 25.6551H27.7586V24.6206H26.7241V25.6551Z" fill="#2A5082"/>
<path fill-rule="evenodd" clip-rule="evenodd" d="M22.0688 29.2757H23.1033V28.2412H22.0688V29.2757Z" fill="#2A5082"/>
<path fill-rule="evenodd" clip-rule="evenodd" d="M15.7233 11.6893C15.3933 12.5758 14.4772 13.7365 13.2653 14.1565L13.2762 20.9996C13.2762 23.5925 19.0651 27.1589 20.0029 27.2065C20.935 27.1589 26.7245 23.5925 26.7245 20.9996V14.1493C25.5229 13.7365 24.6069 12.5758 24.2686 11.6758L15.7233 11.6893ZM20.0003 28.241C18.8836 28.241 12.2417 24.4139 12.2417 20.9996V14.1493C12.2417 13.7112 12.5164 13.3212 12.926 13.1789C13.7831 12.882 14.4989 12.0146 14.7633 11.3122C14.9101 10.9191 15.296 10.6548 15.7233 10.6548H24.2769C24.7041 10.6548 25.09 10.9191 25.2374 11.3122C25.5012 12.0146 26.217 12.882 27.0741 13.1789C27.4838 13.3212 27.7589 13.7112 27.7589 14.1493V20.9996C27.7589 24.4139 21.1165 28.241 20.0003 28.241Z" fill="#2A5082"/>
<path fill-rule="evenodd" clip-rule="evenodd" d="M12.7588 19.4481H27.2415V18.4136H12.7588V19.4481Z" fill="#2A5082"/>
<path fill-rule="evenodd" clip-rule="evenodd" d="M19.4829 27.7241H20.5174V11.1724H19.4829V27.7241Z" fill="#2A5082"/>
</g>
</svg>
