<svg xmlns="http://www.w3.org/2000/svg" width="80" height="80" viewBox="0 0 80 80"><defs><clipPath id="usxba"><path d="M10.42 26.81h61.17v42.985H10.42z"/></clipPath><clipPath id="usxbb"><path d="M8 69.799h63.586V8H8z"/></clipPath></defs><g><g><g><g><path fill="#fff" d="M0 5a5 5 0 0 1 5-5h70a5 5 0 0 1 5 5v70a5 5 0 0 1-5 5H5a5 5 0 0 1-5-5z"/></g><g><g><path fill="#bcc0c4" d="M39.796 20.078c5.05 0 9.798 1.968 13.37 5.538a18.789 18.789 0 0 1 5.537 13.37c0 10.426-8.482 18.908-18.907 18.908-5.05 0-9.799-1.966-13.369-5.537a18.786 18.786 0 0 1-5.539-13.37c0-10.427 8.482-18.909 18.908-18.909m0 39.914c11.582 0 21.005-9.422 21.005-21.006 0-5.61-2.185-10.886-6.152-14.854a20.87 20.87 0 0 0-14.853-6.152c-11.582 0-21.006 9.424-21.006 21.007a20.87 20.87 0 0 0 6.153 14.854 20.861 20.861 0 0 0 14.853 6.151"/></g><g><path fill="#a3d4ff" d="M39.873 53.704c8.1 0 14.649-6.567 14.627-14.666-.02-8.101-6.604-14.667-14.702-14.668-8.1 0-14.648 6.567-14.628 14.668.022 8.1 6.604 14.666 14.703 14.666"/></g><g><path fill="#2a5082" d="M39.796 25.418c7.509 0 13.634 6.11 13.654 13.62a13.495 13.495 0 0 1-3.963 9.63 13.49 13.49 0 0 1-9.616 3.986c-7.509 0-13.634-6.11-13.653-13.62a13.493 13.493 0 0 1 3.963-9.629 13.488 13.488 0 0 1 9.615-3.987m.075 29.334c4.198 0 8.141-1.635 11.102-4.603a15.575 15.575 0 0 0 4.575-11.115c-.022-8.665-7.088-15.714-15.752-15.714-4.198 0-8.14 1.635-11.1 4.603a15.58 15.58 0 0 0-4.576 11.116c.022 8.664 7.088 15.713 15.751 15.713"/></g><g><g><path d="M10.42 26.81h61.17v42.985H10.42z"/></g><g clip-path="url(#usxba)"><path fill="#2a5082" d="M57.633 69.795V65.26H38.748c-3.279 0-6.219-1.124-8.324-2.013l-.73 1.344-2.297.648-4.095-2.361-.608-2.274.819-1.417a26.028 26.028 0 0 1-3.863-3.858l-1.42.826-2.278-.604-2.363-4.078.627-2.29 1.39-.777a28.69 28.69 0 0 1-1.394-5.178h-1.694c-.809 0-1.257-.635-1.525-1.014-.08-.115-.163-.241-.266-.343l-.307-.307v-5.066l1.664-1.664h2.124c.307-1.934.734-3.65 1.271-5.123l-2.012-1.033.959-1.868 3.728 1.916-.384.898c-.728 1.699-1.271 3.851-1.616 6.4l-.124.909h-3.077l-.435.434v3.378c.065.086.128.173.19.258.03.043.057.086.086.126h3.235l.124.909c.298 2.201.93 4.542 1.734 6.42l.37.867-2.25 1.26-.163.595 1.488 2.566.594.157 2.265-1.317.561.745a23.952 23.952 0 0 0 4.756 4.75l.743.56-1.304 2.26.158.594 2.573 1.484.595-.167 1.219-2.245 1.115.477c2.087.894 4.944 2.118 8.14 2.118h20.985v2.81l7.95-5.06-7.95-5.059v3.112h-5.246v-2.098h3.147V52.03l13.957 8.883z"/></g></g><g><path fill="#2a5082" d="M65.397 51.121l-3.613-1.846.384-.9c.825-1.93 1.44-4.18 1.731-6.333l.124-.909h2.615l.434-.434V37.37l-.434-.435h-2.615l-.124-.908c-.31-2.292-.959-4.742-1.733-6.556l-.363-.85 2.264-1.326.159-.593-1.513-2.622-.593-.16-2.261 1.301-.56-.742a23.94 23.94 0 0 0-4.755-4.76l-.743-.558 1.306-2.264-.158-.594-2.55-1.472-.596.174-1.224 2.366-.896-.384c-1.706-.728-4.88-2.084-8.379-2.084H19.86v-3.082l-7.95 5.06 7.95 5.06V19.1h5.246V21.2h-3.148v4.566L8 16.882 21.957 8v4.805h19.347c3.359 0 6.355 1.073 8.305 1.875l.743-1.436 2.319-.678 4.08 2.356.609 2.272-.82 1.423a26.022 26.022 0 0 1 3.865 3.869l1.422-.817 2.272.611 2.376 4.125-.602 2.266-1.432.838c.597 1.597 1.089 3.464 1.4 5.329h1.665l1.664 1.664v5.065l-1.664 1.664H65.84a27.612 27.612 0 0 1-1.375 5.057l1.888.965z"/></g><g><path fill="#2a5082" d="M38.748 45.33a3.151 3.151 0 0 1-3.148-3.148h2.098c0 .578.47 1.049 1.05 1.049h2.098c.58 0 1.05-.471 1.05-1.05v-1.635c0-.452-.288-.852-.719-.994l-3.425-1.143a3.141 3.141 0 0 1-2.152-2.985v-.586a3.151 3.151 0 0 1 3.148-3.148h2.098a3.151 3.151 0 0 1 3.147 3.148h-2.098c0-.579-.47-1.05-1.05-1.05h-2.097c-.58 0-1.05.471-1.05 1.05v.586c0 .452.288.852.718.995l3.426 1.142a3.141 3.141 0 0 1 2.151 2.985v1.636a3.151 3.151 0 0 1-3.147 3.147z"/></g><g><path d="M8 69.799h63.586V8H8z"/></g><g clip-path="url(#usxbb)"><path fill="#2a5082" d="M38.74 32.737h2.098V28.54H38.74z"/></g><g clip-path="url(#usxbb)"><path fill="#2a5082" d="M38.74 48.477h2.098V44.28H38.74z"/></g></g></g></g></g></svg>