<svg xmlns="http://www.w3.org/2000/svg" width="80" height="80" viewBox="0 0 80 80"><defs><clipPath id="6apya"><path d="M0 5a5 5 0 0 1 5-5h70a5 5 0 0 1 5 5v70a5 5 0 0 1-5 5H5a5 5 0 0 1-5-5z"/></clipPath><clipPath id="6apyb"><path d="M11.11 12.02h36.43v36.43H11.11z"/></clipPath></defs><g><g><g><g><path fill="#fff" d="M0 5a5 5 0 0 1 5-5h70a5 5 0 0 1 5 5v70a5 5 0 0 1-5 5H5a5 5 0 0 1-5-5z"/></g><g><path fill="#fff" d="M0 5a5 5 0 0 1 5-5h70a5 5 0 0 1 5 5v70a5 5 0 0 1-5 5H5a5 5 0 0 1-5-5z"/></g><g clip-path="url(#6apya)"><g><g><path fill="#e9eaeb" d="M56.651 39.346c0 10.563-8.563 19.125-19.125 19.125-10.564 0-19.126-8.562-19.126-19.125S26.962 20.22 37.526 20.22c10.562 0 19.125 8.563 19.125 19.126"/></g><g><path fill="#bcc0c4" d="M37.525 65.757c-12.329 0-23.181-8.73-25.805-20.759l1.779-.388c2.443 11.198 12.547 19.325 24.026 19.325 3.975 0 7.922-.969 11.416-2.805l.847 1.613a26.481 26.481 0 0 1-12.263 3.014"/></g><g><path fill="#bcc0c4" d="M61.395 50.667l-1.646-.782a24.347 24.347 0 0 0 2.367-10.539A24.58 24.58 0 0 0 45.43 16.055l.585-1.725a26.402 26.402 0 0 1 17.922 25.016c0 3.962-.855 7.77-2.543 11.321"/></g><g><path fill="#2a5082" d="M62.16 67.047L39.62 44.508l1.288-1.288 21.251 21.252 1.933-1.932-21.253-21.252L44.127 40l22.54 22.54z"/></g><g><path fill="#a3d4ff" d="M63.441 59.313l-4.507 4.508L42.19 47.077l4.508-4.507z"/></g><g><path fill="#2a5082" d="M46.696 43.866L62.151 59.32l-3.22 3.22-15.455-15.456zM64.727 59.32L46.696 41.29 40.9 47.085l18.032 18.032z"/></g><g><path fill="#2a5082" d="M45.408 50.295l-1.288-1.288 4.508-4.507 1.288 1.288z"/></g><g><path fill="#2a5082" d="M56.358 61.245l-1.288-1.288 4.507-4.507 1.288 1.288z"/></g><g><path fill="#e9eaeb" d="M46.628 30.235c0 9.557-7.747 17.304-17.304 17.304-9.556 0-17.304-7.747-17.304-17.305 0-9.556 7.748-17.304 17.304-17.304 9.558 0 17.304 7.748 17.304 17.305"/></g><g><g><path d="M11.11 12.02h36.43v36.43H11.11z"/></g><g clip-path="url(#6apyb)"><path fill="#2a5082" d="M29.325 13.841c9.04 0 16.393 7.355 16.393 16.395 0 9.039-7.354 16.393-16.393 16.393-9.04 0-16.393-7.354-16.393-16.394S20.286 13.84 29.325 13.84m0 34.61c10.044 0 18.215-8.171 18.215-18.215S39.369 12.02 29.325 12.02 11.11 20.191 11.11 30.235 19.281 48.45 29.325 48.45"/></g></g><g><path fill="#fff" d="M42.982 30.237c0 7.548-6.118 13.666-13.665 13.666-7.549 0-13.667-6.119-13.667-13.666 0-7.549 6.118-13.667 13.667-13.667 7.547 0 13.666 6.12 13.665 13.667"/></g><g><path fill="#2a5082" d="M29.317 17.481a12.67 12.67 0 0 1 9.02 3.737 12.668 12.668 0 0 1 3.735 9.02c0 7.033-5.72 12.755-12.755 12.755-7.033 0-12.755-5.722-12.755-12.756 0-7.033 5.722-12.756 12.755-12.756m0 27.334c8.038 0 14.577-6.54 14.577-14.578 0-3.894-1.516-7.553-4.27-10.307a14.479 14.479 0 0 0-10.307-4.27c-8.037 0-14.577 6.54-14.577 14.577 0 8.038 6.54 14.578 14.577 14.578"/></g><g><path fill="#2a5082" d="M20.341 28.578l-1.791-.329A10.93 10.93 0 0 1 29.306 19.3h.002v1.821h-.002a9.11 9.11 0 0 0-8.965 7.457"/></g><g><path fill="#2a5082" d="M34.284 40.048l-.804-1.634a9.15 9.15 0 0 0 4.947-6.524l1.792.329a10.982 10.982 0 0 1-5.935 7.83"/></g><g><path fill="#2a5082" d="M18.78 33.217a10.897 10.897 0 0 1-.41-2.977h1.821c0 .845.115 1.68.342 2.48z"/></g></g></g></g></g></g></svg>