<svg xmlns="http://www.w3.org/2000/svg" width="80" height="80" viewBox="0 0 80 80"><defs><clipPath id="sju9a"><path d="M10 21.31h21.937v47.472H10z"/></clipPath><clipPath id="sju9b"><path d="M48.06 21.31h21.937v47.472H48.06z"/></clipPath><clipPath id="sju9c"><path d="M16.21 13.03h47.586v51.724H16.21z"/></clipPath><clipPath id="sju9d"><path d="M10 68.778h60V13.03H10z"/></clipPath></defs><g><g><g><g><path fill="#fff" d="M0 5a5 5 0 0 1 5-5h70a5 5 0 0 1 5 5v70a5 5 0 0 1-5 5H5a5 5 0 0 1-5-5z"/></g><g><g><g><path d="M10 21.31h21.937v47.472H10z"/></g><g clip-path="url(#sju9a)"><path fill="#bcc0c4" d="M30.995 68.782C20.883 63.606 10 54.312 10 46.138V21.31h2.069v24.828c0 6.16 8.355 14.909 19.868 20.803z"/></g></g><g><g><path d="M48.06 21.31h21.937v47.472H48.06z"/></g><g clip-path="url(#sju9b)"><path fill="#bcc0c4" d="M49.002 68.782l-.942-1.841c11.513-5.894 19.868-14.643 19.868-20.803V21.31h2.07v24.828c0 8.174-10.884 17.468-20.996 22.644"/></g></g><g><path fill="#fff" d="M39.999 14.07h13.698c.48 0 .918.318 1.021.785a9.57 9.57 0 0 0 7.254 7.254c.468.103.785.542.785 1.021v19.905c0 11.121-19.914 20.69-22.758 20.69-2.845 0-22.759-9.569-22.759-20.69V23.13c0-.479.318-.918.785-1.021a9.57 9.57 0 0 0 7.254-7.254c.103-.467.542-.785 1.021-.785z"/></g><g><g><path d="M16.21 13.03h47.586v51.724H16.21z"/></g><g clip-path="url(#sju9c)"><path fill="#2a5082" d="M53.714 15.074a10.652 10.652 0 0 0 8.013 8.05V43.03c0 10.346-19.419 19.655-21.724 19.655-2.305 0-21.724-9.31-21.724-19.655l-.025-19.917a10.654 10.654 0 0 0 8.05-8.014zM63.796 43.03V23.125c0-.973-.671-1.827-1.596-2.032a8.54 8.54 0 0 1-6.467-6.467c-.204-.925-1.059-1.596-2.031-1.596H26.304c-.972 0-1.826.671-2.03 1.596a8.544 8.544 0 0 1-6.468 6.467c-.925.205-1.596 1.06-1.596 2.032V43.03c0 11.613 20.328 21.724 23.793 21.724 3.467 0 23.793-10.11 23.793-21.724z"/></g></g><g><path fill="#a3d4ff" d="M40 37.857V22.34h9.31c.474 2.069 2.672 4.699 5.173 5.172v10.345z"/></g><g><path fill="#a3d4ff" d="M25.52 37.86v4.138c0 6.077 12.48 13.448 14.483 13.448V37.86z"/></g><g><path d="M10 68.778h60V13.03H10z"/></g><g clip-path="url(#sju9d)"><path fill="#2a5082" d="M32.76 19.239h2.069V17.17H32.76z"/></g><g clip-path="url(#sju9d)"><path fill="#2a5082" d="M20.34 28.549h2.069V26.48H20.34z"/></g><g clip-path="url(#sju9d)"><path fill="#2a5082" d="M20.34 38.899h2.069V36.83H20.34z"/></g><g clip-path="url(#sju9d)"><path fill="#2a5082" d="M24.48 51.309h2.069V49.24H24.48z"/></g><g clip-path="url(#sju9d)"><path fill="#2a5082" d="M33.79 58.549h2.069V56.48H33.79z"/></g><g clip-path="url(#sju9d)"><path fill="#2a5082" d="M45.17 19.239h2.069V17.17H45.17z"/></g><g clip-path="url(#sju9d)"><path fill="#2a5082" d="M57.59 28.549h2.069V26.48H57.59z"/></g><g clip-path="url(#sju9d)"><path fill="#2a5082" d="M57.59 38.899h2.069V36.83H57.59z"/></g><g clip-path="url(#sju9d)"><path fill="#2a5082" d="M53.45 51.309h2.069V49.24H53.45z"/></g><g clip-path="url(#sju9d)"><path fill="#2a5082" d="M44.14 58.549h2.069V56.48H44.14z"/></g><g clip-path="url(#sju9d)"><path fill="#2a5082" d="M48.534 23.352c.676 1.8 2.509 4.121 4.912 4.947v13.7c0 5.187-11.58 12.32-13.443 12.415-1.876-.096-13.454-7.228-13.454-12.414l-.022-13.687c2.424-.84 4.256-3.16 4.916-4.934zM55.514 42V28.299a2.05 2.05 0 0 0-1.37-1.94c-1.713-.595-3.145-2.33-3.673-3.734a2.053 2.053 0 0 0-1.92-1.315H31.442a2.05 2.05 0 0 0-1.92 1.315c-.529 1.405-1.96 3.14-3.674 3.733A2.05 2.05 0 0 0 24.48 28.3v13.7c0 6.83 13.284 14.483 15.517 14.483 2.233 0 15.517-7.654 15.517-14.482z"/></g><g clip-path="url(#sju9d)"><path fill="#2a5082" d="M25.52 38.899h28.965V36.83H25.52z"/></g><g clip-path="url(#sju9d)"><path fill="#2a5082" d="M38.97 55.443h2.069V22.34H38.97z"/></g></g></g></g></g></svg>