<svg xmlns="http://www.w3.org/2000/svg" width="90" height="90" viewBox="0 0 90 90"><defs><clipPath id="nv8la"><path d="M6.75 74.25H81v-63H6.75z"/></clipPath></defs><g><g><g><g><path fill="#fff" d="M0 5a5 5 0 0 1 5-5h80a5 5 0 0 1 5 5v80a5 5 0 0 1-5 5H5a5 5 0 0 1-5-5z"/></g></g><g><g><path fill="#e9eaeb" d="M72 41.625C72 58.401 58.402 72 41.625 72 24.849 72 11.25 58.4 11.25 41.625c0-16.776 13.6-30.375 30.375-30.375C58.402 11.25 72 24.85 72 41.625"/></g><g><path d="M6.75 74.25H81v-63H6.75z"/></g><g clip-path="url(#nv8la)"><path fill="#fff" d="M24.75 74.25h36v-36h-36z"/></g><g clip-path="url(#nv8la)"><path fill="#a3d4ff" d="M38.724 45c0 2.616-2.227 4.737-4.974 4.737v13.026c2.747 0 4.974 2.121 4.974 4.737h32.344C77.36 67.5 81 61.143 81 53.676V45z"/></g><g clip-path="url(#nv8la)"><path fill="#2a5082" d="M40.718 65.143a5.915 5.915 0 0 0-4.605-4.595V49.702a5.915 5.915 0 0 0 4.605-4.595h37.92v7.456c0 6.059-2.584 12.58-8.256 12.58H40.718M70.382 67.5C76.632 67.5 81 61.357 81 52.563V42.75H38.475v1.179c0 1.949-1.59 3.535-3.544 3.535H33.75v15.322h1.181a3.544 3.544 0 0 1 3.544 3.535V67.5h31.907"/></g><g clip-path="url(#nv8la)"><path fill="#2a5082" d="M42.75 56.25h4.5V54h-4.5z"/></g><g clip-path="url(#nv8la)"><path fill="#fff" d="M65.25 56.25a6.75 6.75 0 1 1-13.5 0 6.75 6.75 0 0 1 13.5 0"/></g><g clip-path="url(#nv8la)"><path fill="#2a5082" d="M59.625 49.67a5.463 5.463 0 0 1 5.458 5.456 5.463 5.463 0 0 1-5.458 5.453 5.463 5.463 0 0 1-5.458-5.453 5.463 5.463 0 0 1 5.458-5.455m0 13.329c4.343 0 7.875-3.533 7.875-7.874 0-4.343-3.532-7.876-7.875-7.876s-7.875 3.533-7.875 7.876c0 4.341 3.532 7.874 7.875 7.874"/></g><g clip-path="url(#nv8la)"><path fill="#2a5082" d="M69.032 74.25H24.75V48.002h2.394v23.862h41.888c5.727 0 9.574-3.519 9.574-8.758V34.323c-2.305 3.201-6.041 5.327-10.165 5.327h-7.787v-2.386h7.787c5.51 0 10.165-4.7 10.165-10.264H81v36.106c0 6.561-4.921 11.144-11.968 11.144"/></g><g clip-path="url(#nv8la)"><path fill="#2a5082" d="M27.25 42.75h-2.5V36H58.5v2.25H27.25z"/></g><g clip-path="url(#nv8la)"><path fill="#fff" d="M68.984 15.75H60.75v35.742h8.234C75.512 51.491 81 56.854 81 63V26.945C81 20.8 75.512 15.75 68.984 15.75"/></g><g clip-path="url(#nv8la)"><path fill="#2a5082" d="M61 15.935h6.882c5.755 0 10.618 4.682 10.618 10.222v29.33c-2.408-3.283-6.31-5.465-10.618-5.465H61zm20 10.222c0-6.86-6.008-12.657-13.117-12.657H58.5v38.957h9.382C73.54 52.457 78.5 57.384 78.5 63H81z"/></g><g clip-path="url(#nv8la)"><path fill="#a3d4ff" d="M81 31.423c0-6.377-4.166-8.923-8.884-8.923 0 1.987-1.916 4.066-4.616 4.361v14.765c2.7.295 4.616 2.04 4.616 4.362C74.264 45.988 81 49.304 81 54z"/></g><g clip-path="url(#nv8la)"><path fill="#2a5082" d="M69.75 41.112v-12.24c1.783-.594 3.208-2.115 3.68-3.898 2.111.271 5.32 1.622 5.32 7.313v16.37c-1.613-1.781-3.755-2.973-5.247-3.397-.363-1.99-1.776-3.553-3.753-4.148zM81 32.288c0-7.216-4.405-9.788-8.529-9.788h-1.125v1.206c0 1.274-1.146 2.78-2.853 2.997l-.993.125v16.346l.993.124c1.706.216 2.853 1.42 2.853 2.996v1.207h1.125c1.313 0 6.279 2.765 6.279 6.499H81z"/></g><g clip-path="url(#nv8la)"><path fill="#2a5082" d="M45 22.5h18v-2.25H45z"/></g><g clip-path="url(#nv8la)"><path fill="#2a5082" d="M40.5 22.5h2.25v-2.25H40.5z"/></g><g clip-path="url(#nv8la)"><path fill="#2a5082" d="M36 22.5h2.25v-2.25H36z"/></g><g clip-path="url(#nv8la)"><path fill="#2a5082" d="M18 45h6.75v-2.25H18z"/></g><g clip-path="url(#nv8la)"><path fill="#2a5082" d="M6.75 56.25h22.5V54H6.75z"/></g><g clip-path="url(#nv8la)"><path fill="#2a5082" d="M13.5 45h2.25v-2.25H13.5z"/></g></g></g></g></svg>