<svg xmlns="http://www.w3.org/2000/svg" width="80" height="80" viewBox="0 0 80 80"><defs><clipPath id="c72ga"><path d="M12 70.747h56V10H12z"/></clipPath></defs><g><g><g><g><path fill="#fff" d="M0 5a5 5 0 0 1 5-5h70a5 5 0 0 1 5 5v70a5 5 0 0 1-5 5H5a5 5 0 0 1-5-5z"/></g><g><g><path fill="#2a5082" d="M36.682 69.796h-7.567c-2.002 0-3.118-1.03-4.015-1.857-.687-.633-1.102-.99-1.68-.99h-6.67V65.05h6.67c1.347 0 2.207.793 2.967 1.494.788.726 1.467 1.353 2.728 1.353h7.567z"/></g><g><path fill="#2a5082" d="M48.067 54.608a.95.95 0 0 1 .949.95v1.899a.95.95 0 0 1-.95.949h-4.739a.95.95 0 0 1-.949-.95v-1.899a.95.95 0 0 1 .95-.949zm0 5.696a2.85 2.85 0 0 0 2.847-2.847v-1.9a2.85 2.85 0 0 0-2.847-2.847h-4.74a2.85 2.85 0 0 0-2.847 2.847v1.9a2.85 2.85 0 0 0 2.847 2.847z"/></g><g><path fill="#2a5082" d="M47.117 48.918a.95.95 0 0 1 .949.95v1.898a.95.95 0 0 1-.95.949h-4.739a.95.95 0 0 1-.949-.95v-1.898a.95.95 0 0 1 .95-.949zm0 5.695a2.85 2.85 0 0 0 2.847-2.847v-1.899a2.85 2.85 0 0 0-2.847-2.847h-4.74a2.85 2.85 0 0 0-2.847 2.847v1.899a2.85 2.85 0 0 0 2.847 2.847z"/></g><g><path fill="#2a5082" d="M47.117 60.308a.95.95 0 0 1 .949.95v1.899a.95.95 0 0 1-.95.949h-4.739a.95.95 0 0 1-.949-.95v-1.899a.95.95 0 0 1 .95-.949zm0 5.696a2.85 2.85 0 0 0 2.847-2.847v-1.9a2.85 2.85 0 0 0-2.847-2.847h-4.74a2.85 2.85 0 0 0-2.847 2.847v1.9a2.85 2.85 0 0 0 2.847 2.847z"/></g><g><path fill="#2a5082" d="M45.217 65.998a.95.95 0 0 1 .949.95v.949a.95.95 0 0 1-.95.949h-4.739a.95.95 0 0 1-.949-.95v-.949a.95.95 0 0 1 .95-.949zm0 4.746a2.85 2.85 0 0 0 2.847-2.847v-.95a2.85 2.85 0 0 0-2.847-2.847h-4.74a2.85 2.85 0 0 0-2.847 2.847v.95a2.85 2.85 0 0 0 2.847 2.847z"/></g><g><path d="M12 70.747h56V10H12z"/></g><g clip-path="url(#c72ga)"><path fill="#a3d4ff" d="M12.95 68.851h9.492V47.97H12.95z"/></g><g clip-path="url(#c72ga)"><path fill="#2a5082" d="M13.898 48.918h7.593v18.983h-7.593zM12 69.8h11.39V47.02H12z"/></g><g clip-path="url(#c72ga)"><path fill="#2a5082" d="M30.56 62.148l-.665-1.778a10.392 10.392 0 0 0 6.783-9.571v-4.727c0-.368.116-.731.275-1.233.269-.843.674-2.116.674-4.063 0-2.929-.491-3.857-1.7-5.421-.52-.673-1.241-.816-1.692-.662-.404.139-.404.425-.404.52v1.367c0 4.489-1.976 7.33-4.11 9.732l-4.006 4.506H23.39v-1.899h1.472l3.44-3.868c2.24-2.522 3.63-4.82 3.63-8.47v-1.368c0-1.073.648-1.96 1.69-2.315 1.105-.38 2.71-.124 3.808 1.297 1.478 1.914 2.096 3.251 2.096 6.58 0 2.244-.478 3.744-.763 4.64-.08.252-.18.565-.187.664v4.739c-.102 5.105-3.249 9.545-8.016 11.33"/></g><g clip-path="url(#c72ga)"><path fill="#bcc0c4" d="M49.955 46.073a1.87 1.87 0 0 1-1.504-.763l-3.702-4.936h-5.22v-1.898h6.17l4.27 5.695v-5.695h2.848V24.238H29.088v2.848H27.19V22.34h27.525v18.034h-2.847v3.796c0 .832-.51 1.54-1.298 1.802-.204.067-.412.1-.615.1"/></g><g clip-path="url(#c72ga)"><path fill="#bcc0c4" d="M45.22 23.287h1.898V19.49H45.22z"/></g><g clip-path="url(#c72ga)"><path fill="#bcc0c4" d="M21.51 36.58c-.202 0-.41-.033-.614-.1a1.873 1.873 0 0 1-1.299-1.802v-3.797H16.75V10h30.373v6.642h-1.898v-4.744H18.648v17.085h2.848v5.695l4.271-5.695h19.458v-2.847h1.898v4.745H26.716l-3.702 4.936a1.87 1.87 0 0 1-1.503.763"/></g><g clip-path="url(#c72ga)"><path fill="#bcc0c4" d="M63.24 40.37a1.87 1.87 0 0 1-1.503-.762l-3.702-4.936h-4.271v-1.898h5.22l4.271 5.695v-5.695h2.848V17.588H37.628v2.849H35.73V15.69h32.271v18.982h-2.847v3.797c0 .831-.51 1.538-1.299 1.801-.204.068-.412.1-.615.1"/></g><g clip-path="url(#c72ga)"><path fill="#bcc0c4" d="M30.552 40.373H27.19V32.78h1.898v5.695h1.464z"/></g><g clip-path="url(#c72ga)"><path fill="#2a5082" d="M16.75 54.607h1.898V50.81H16.75z"/></g></g></g></g></g></svg>